<?xml version="1.0" standalone="no"?>
<!DOCTYPE svg PUBLIC "-//W3C//DTD SVG 20010904//EN"
 "http://www.w3.org/TR/2001/REC-SVG-20010904/DTD/svg10.dtd">
<svg version="1.0" xmlns="http://www.w3.org/2000/svg"
 width="512.000000pt" height="512.000000pt" viewBox="0 0 512.000000 512.000000"
 preserveAspectRatio="xMidYMid meet">
<metadata>
Created by potrace 1.11, written by Peter Selinger 2001-2013
</metadata>
<g transform="translate(0.000000,512.000000) scale(0.100000,-0.100000)"
fill="#000000" stroke="none">
<path d="M2754 3821 c-1184 -478 -2168 -877 -2187 -886 -85 -40 -60 -165 32
-165 10 0 943 373 2075 830 1131 457 2059 830 2062 830 3 0 -18 -27 -47 -61
-35 -41 -185 -162 -461 -372 -391 -298 -411 -312 -448 -309 -22 2 -48 -2 -60
-8 -11 -6 -489 -360 -1061 -786 l-1040 -774 -681 276 c-737 298 -829 334 -859
334 -29 0 -79 -53 -79 -84 0 -58 12 -64 804 -384 l760 -307 203 -709 c111
-390 211 -723 221 -740 42 -72 150 -97 226 -52 23 14 225 214 450 445 226 232
411 421 412 421 1 0 247 -97 546 -216 299 -119 567 -223 597 -231 89 -24 175
1 237 69 38 41 59 75 67 109 4 14 70 448 147 965 136 910 145 963 295 1714 85
426 155 786 155 800 -1 41 -35 105 -71 130 -23 17 -50 25 -88 27 -54 3 -138
-30 -2207 -866z m1694 -1231 c-143 -833 -262 -1516 -263 -1518 -4 -5 -1031
401 -1341 530 l-292 121 80 93 c68 79 83 92 99 84 20 -11 60 -13 84 -4 8 4
437 503 952 1110 515 608 937 1103 938 1102 2 -2 -114 -685 -257 -1518z"/>
</g>
</svg>
